<svg width="16" height="17" viewBox="0 0 16 17" fill="none" xmlns="http://www.w3.org/2000/svg">
<path d="M6.80001 5.6998C7.1638 4.09661 8.59754 2.8998 10.3108 2.8998C12.299 2.8998 13.9108 4.51158 13.9108 6.4998C13.9108 8.34148 12.5279 9.86015 10.7438 10.074M4.40001 4.4998L6.00001 2.8998L4.40001 1.2998M1.20001 6.0998V5.03314C1.20001 3.85493 2.15514 2.8998 3.33335 2.8998H4.93335M11.6 12.4998L10 14.0998L11.6 15.6998M14.8 10.8998V11.9665C14.8 13.1447 13.8449 14.0998 12.6667 14.0998H11.0667M8.40001 11.2998C8.40001 13.288 6.78824 14.8998 4.80001 14.8998C2.81179 14.8998 1.20001 13.288 1.20001 11.2998C1.20001 9.31158 2.81179 7.6998 4.80001 7.6998C6.78824 7.6998 8.40001 9.31158 8.40001 11.2998Z" stroke="#221F1F" stroke-width="1.2" stroke-linecap="round" stroke-linejoin="round"/>
</svg>
