<svg width="18" height="14" viewBox="0 0 18 14" fill="none" xmlns="http://www.w3.org/2000/svg">
<path d="M0.999908 12.149L1.00009 2.52179C1.0001 1.84835 1.65229 1.36744 2.29565 1.56649L2.36978 1.58942C4.59645 2.27831 7.00378 2.27831 9.23044 1.58942C11.6645 0.836376 14.3073 0.908459 16.6895 1.79287L17.0001 1.90819L16.9999 12.5602C16.9999 12.7207 16.8398 12.8321 16.6893 12.7762V12.7762C14.3071 11.8918 11.6643 11.8197 9.23024 12.5728C7.00358 13.2616 4.59624 13.2616 2.36958 12.5728L0.999908 12.149Z" stroke="#908B8B" stroke-width="1.2" stroke-linejoin="round"/>
<path d="M10.9999 7.07275C10.9999 8.17732 10.1045 9.07275 8.99991 9.07275C7.89534 9.07275 6.99991 8.17732 6.99991 7.07275C6.99991 5.96818 7.89534 5.07275 8.99991 5.07275C10.1045 5.07275 10.9999 5.96818 10.9999 7.07275Z" stroke="#E4932B" stroke-width="1.2" stroke-linejoin="round"/>
</svg>
