<svg width="18" height="18" viewBox="0 0 18 18" fill="none" xmlns="http://www.w3.org/2000/svg">
<path d="M6.52265 16.2982L6.22131 15.7794L6.52265 16.2982ZM5.90278 15.8293L5.30732 15.7557L5.90278 15.8293ZM5.41209 13.2065L4.88808 13.4988L4.8917 13.5051L5.41209 13.2065ZM4.67131 11.8786L5.19532 11.5863L5.19169 11.58L4.67131 11.8786ZM16.328 10.6032L16.6294 11.1221L16.328 10.6032ZM16.2438 9.83737L16.4896 9.29003L16.4896 9.29003L16.2438 9.83737ZM14.2538 8.07125L13.7296 8.36326L13.7334 8.36991L14.2538 8.07125ZM13.5505 6.80875L14.0747 6.51674L14.0709 6.51009L13.5505 6.80875ZM6.51403 4.89401L6.81537 5.41285L6.51403 4.89401ZM11.1625 16.2363L11.4638 16.7552L11.1625 16.2363ZM0.956699 8.77246C1.00343 9.10052 1.30726 9.32858 1.63532 9.28185C1.96338 9.23512 2.19144 8.93129 2.14471 8.60323L0.956699 8.77246ZM2.69443 5.82248C2.86775 5.54005 2.7793 5.17059 2.49687 4.99727C2.21444 4.82395 1.84499 4.9124 1.67166 5.19483L2.69443 5.82248ZM8.94558 0.982073C8.61427 0.988359 8.35078 1.26203 8.35707 1.59335C8.36335 1.92466 8.63703 2.18814 8.96834 2.18186L8.94558 0.982073ZM11.6394 3.06842C11.8972 3.27666 12.2749 3.23651 12.4832 2.97875C12.6914 2.72099 12.6513 2.34321 12.3935 2.13497L11.6394 3.06842ZM6.49825 15.9029C6.6005 15.076 6.53776 13.9625 5.93248 12.9078L4.8917 13.5051C5.33094 14.2705 5.3881 15.1024 5.30732 15.7557L6.49825 15.9029ZM5.93607 12.9142L5.19528 11.5863L4.14733 12.171L4.88811 13.4988L5.93607 12.9142ZM16.4896 9.29003C15.903 9.0266 15.2204 8.55007 14.7741 7.77259L13.7334 8.36991C14.3388 9.42489 15.25 10.0488 15.998 10.3847L16.4896 9.29003ZM14.7779 7.77926L14.0746 6.51676L13.0263 7.10073L13.7296 8.36324L14.7779 7.77926ZM14.0709 6.51009C12.4808 3.73957 8.9635 2.77751 6.21269 4.37518L6.81537 5.41285C8.98338 4.15367 11.7667 4.90612 13.0301 7.10741L14.0709 6.51009ZM16.6294 11.1221C17.0383 10.8845 17.1296 10.4455 17.0917 10.1364C17.0538 9.82792 16.8712 9.46139 16.4896 9.29003L15.998 10.3847C15.9503 10.3633 15.9247 10.3332 15.9142 10.317C15.9043 10.3018 15.9016 10.2907 15.9006 10.2826C15.8997 10.275 15.8979 10.2508 15.9125 10.214C15.929 10.1724 15.9654 10.12 16.0267 10.0844L16.6294 11.1221ZM5.19169 11.58C3.94787 9.41275 4.68091 6.65255 6.81537 5.41285L6.21269 4.37518C3.49973 5.95086 2.58274 9.44491 4.15092 12.1773L5.19169 11.58ZM6.22131 15.7794C6.28424 15.7428 6.35013 15.7374 6.39608 15.7445C6.43655 15.7508 6.45687 15.7652 6.46245 15.7695C6.46858 15.7743 6.47625 15.7818 6.48385 15.7974C6.49204 15.8143 6.50463 15.8513 6.49825 15.9029L5.30732 15.7557C5.25538 16.1757 5.47883 16.5251 5.7265 16.7174C5.9743 16.9098 6.40662 17.0594 6.82399 16.817L6.22131 15.7794ZM16.0267 10.0844L6.22131 15.7794L6.82399 16.817L16.6294 11.1221L16.0267 10.0844ZM11.6026 13.3442C12.0472 14.119 11.7623 15.1941 10.8611 15.7175L11.4638 16.7552C12.8754 15.9353 13.4505 14.1533 12.6433 12.7469L11.6026 13.3442ZM10.8611 15.7175C9.96155 16.2399 8.8989 15.9512 8.45572 15.179L7.41495 15.7764C8.22359 17.1854 10.0506 17.5759 11.4638 16.7552L10.8611 15.7175ZM6.58361 2.97774C6.86519 3.46837 6.69666 4.09409 6.21269 4.37518L6.81537 5.41285C7.87324 4.79845 8.23298 3.44085 7.62438 2.38042L6.58361 2.97774ZM6.21269 4.37518C5.73083 4.65504 5.11303 4.49041 4.83264 4.00186L3.79187 4.59919C4.40166 5.66169 5.75539 6.02849 6.81537 5.41285L6.21269 4.37518ZM4.83264 4.00186C4.55106 3.51124 4.71959 2.88552 5.20356 2.60443L4.60087 1.56676C3.54301 2.18116 3.18326 3.53876 3.79187 4.59919L4.83264 4.00186ZM5.20356 2.60443C5.68542 2.32457 6.30322 2.4892 6.58361 2.97774L7.62438 2.38042C7.01459 1.31792 5.66085 0.951121 4.60087 1.56676L5.20356 2.60443ZM2.14471 8.60323C2.00533 7.62479 2.1925 6.64038 2.69443 5.82248L1.67166 5.19483C1.01365 6.26707 0.780641 7.53652 0.956699 8.77246L2.14471 8.60323ZM8.96834 2.18186C9.95221 2.16319 10.8985 2.46987 11.6394 3.06842L12.3935 2.13497C11.4178 1.34669 10.1914 0.958439 8.94558 0.982073L8.96834 2.18186Z" fill="#908B8B"/>
</svg>
