<svg width="20" height="21" viewBox="0 0 20 21" fill="none" xmlns="http://www.w3.org/2000/svg">
<path d="M12.4529 17.6545V3.50781C12.4529 2.95553 12.0052 2.50781 11.4529 2.50781H8.4044C7.85212 2.50781 7.4044 2.95553 7.4044 3.50781V17.6545M12.4529 17.6545L12.4516 9.2213C12.4515 8.66896 12.8993 8.22115 13.4516 8.22115H16.5C17.0523 8.22115 17.5 8.66886 17.5 9.22114V16.6545C17.5 17.2068 17.0523 17.6545 16.5 17.6545H12.4529ZM12.4529 17.6545H7.4044M7.4044 17.6545V13.6545C7.4044 13.1022 6.95669 12.6545 6.4044 12.6545H3.5C2.94772 12.6545 2.5 13.1022 2.5 13.6545V16.6545C2.5 17.2068 2.94771 17.6545 3.5 17.6545H7.4044Z" stroke="#908B8B" stroke-width="1.2" stroke-linecap="round" stroke-linejoin="round"/>
</svg>
