<svg width="18" height="19" viewBox="0 0 18 19" fill="none" xmlns="http://www.w3.org/2000/svg">
<path d="M5.51436 15.5625C5.19972 15.6665 5.02896 16.0058 5.13294 16.3204C5.23692 16.6351 5.57627 16.8059 5.8909 16.7019L5.51436 15.5625ZM10.5518 16.4527L10.4978 15.8551L10.5518 16.4527ZM13.4613 15.8117L13.7227 16.3518L13.4613 15.8117ZM16.2414 13.3043L15.7768 12.9247L16.2414 13.3043ZM14.34 11.7354L14.7624 12.1615L14.34 11.7354ZM13.0596 13.0048L13.4821 13.4309L13.4821 13.4309L13.0596 13.0048ZM9.58198 12.9681C9.25061 12.9681 8.98198 13.2367 8.98198 13.5681C8.98198 13.8994 9.25061 14.1681 9.58198 14.1681V12.9681ZM15.9458 11.5777L15.615 12.0783L15.9458 11.5777ZM6.68668 11.1572L6.95317 11.6948L6.68668 11.1572ZM10.1667 10.8416L10.3233 10.2624H10.3233L10.1667 10.8416ZM11.5257 11.209L11.3691 11.7882H11.3691L11.5257 11.209ZM11.9563 12.8166L11.5339 12.3905L11.9563 12.8166ZM10.7759 13.142C10.5406 13.3753 10.539 13.7552 10.7723 13.9905C11.0056 14.2258 11.3855 14.2275 11.6208 13.9942L10.7759 13.142ZM5.8909 16.7019C6.01733 16.6601 6.24299 16.6408 6.59984 16.6661C6.9445 16.6904 7.34426 16.75 7.79245 16.8198C8.65384 16.954 9.7075 17.1314 10.6058 17.0503L10.4978 15.8551C9.77975 15.92 8.89373 15.7769 7.97709 15.6341C7.53625 15.5655 7.08741 15.4976 6.68448 15.4691C6.29375 15.4414 5.87285 15.444 5.51436 15.5625L5.8909 16.7019ZM10.6058 17.0503C11.8658 16.9365 12.4499 16.9675 13.7227 16.3518L13.2 15.2716C12.1586 15.7754 11.8022 15.7373 10.4978 15.8551L10.6058 17.0503ZM13.7227 16.3518C14.8626 15.8003 16.0085 14.5379 16.7061 13.6839L15.7768 12.9247C15.0733 13.7858 14.0745 14.8484 13.2 15.2716L13.7227 16.3518ZM13.9176 11.3093L12.6372 12.5787L13.4821 13.4309L14.7624 12.1615L13.9176 11.3093ZM11.6881 12.9681H9.58198V14.1681H11.6881V12.9681ZM12.6372 12.5787C12.3863 12.8274 12.045 12.9681 11.6881 12.9681V14.1681C12.36 14.1681 13.0054 13.9035 13.4821 13.4309L12.6372 12.5787ZM16.2767 11.0772C15.5354 10.5873 14.5488 10.6835 13.9176 11.3093L14.7624 12.1615C14.9891 11.9367 15.3467 11.901 15.615 12.0783L16.2767 11.0772ZM16.7061 13.6839C17.3957 12.8397 17.1376 11.6462 16.2767 11.0772L15.615 12.0783C15.9336 12.2889 15.9794 12.6767 15.7768 12.9247L16.7061 13.6839ZM2.14656 10.9629H4.73279V9.76294H2.14656V10.9629ZM4.77935 11.004V16.7732H5.97935V11.004H4.77935ZM4.73279 16.8142H2.14656V18.0142H4.73279V16.8142ZM2.1 16.7732V11.004H0.9V16.7732H2.1ZM2.14656 16.8142C2.11597 16.8142 2.1 16.791 2.1 16.7732H0.9C0.9 17.4635 1.46298 18.0142 2.14656 18.0142V16.8142ZM4.77935 16.7732C4.77935 16.791 4.76338 16.8142 4.73279 16.8142V18.0142C5.41637 18.0142 5.97935 17.4635 5.97935 16.7732H4.77935ZM4.73279 10.9629C4.76338 10.9629 4.77935 10.9862 4.77935 11.004H5.97935C5.97935 10.3137 5.41638 9.76294 4.73279 9.76294V10.9629ZM2.14656 9.76294C1.46298 9.76294 0.9 10.3137 0.9 11.004H2.1C2.1 10.9862 2.11597 10.9629 2.14656 10.9629V9.76294ZM5.96912 12.1826L6.95317 11.6948L6.4202 10.6196L5.43615 11.1074L5.96912 12.1826ZM8.71073 11.2835H8.97588V10.0835H8.71073V11.2835ZM10.0101 11.4208L11.3691 11.7882L11.6824 10.6298L10.3233 10.2624L10.0101 11.4208ZM11.5339 12.3905L10.7759 13.142L11.6208 13.9942L12.3788 13.2427L11.5339 12.3905ZM11.3691 11.7882C11.6461 11.8631 11.7284 12.1976 11.5339 12.3905L12.3788 13.2427C13.2373 12.3915 12.8422 10.9435 11.6824 10.6298L11.3691 11.7882ZM8.97588 11.2835C9.32529 11.2835 9.67311 11.3296 10.0101 11.4208L10.3233 10.2624C9.88415 10.1436 9.43102 10.0835 8.97588 10.0835V11.2835ZM6.95317 11.6948C7.49864 11.4244 8.10039 11.2835 8.71073 11.2835V10.0835C7.91582 10.0835 7.13162 10.2669 6.4202 10.6196L6.95317 11.6948ZM13.1846 5.87576C13.1846 6.95566 12.3002 7.83987 11.1984 7.83987V9.03987C12.9532 9.03987 14.3846 7.6281 14.3846 5.87576H13.1846ZM11.1984 7.83987C10.0965 7.83987 9.21215 6.95566 9.21215 5.87576H8.01215C8.01215 7.6281 9.44354 9.03987 11.1984 9.03987V7.83987ZM9.21215 5.87576C9.21215 4.79587 10.0965 3.91166 11.1984 3.91166V2.71166C9.44354 2.71166 8.01215 4.12343 8.01215 5.87576H9.21215ZM11.1984 3.91166C12.3002 3.91166 13.1846 4.79587 13.1846 5.87576H14.3846C14.3846 4.12343 12.9532 2.71166 11.1984 2.71166V3.91166ZM8.61215 5.27576C7.51031 5.27576 6.62591 4.39155 6.62591 3.31166H5.42591C5.42591 5.064 6.85731 6.47576 8.61215 6.47576V5.27576ZM6.62591 3.31166C6.62591 2.23177 7.51031 1.34756 8.61215 1.34756V0.147559C6.85731 0.147559 5.42591 1.55932 5.42591 3.31166H6.62591ZM8.61215 1.34756C9.71399 1.34756 10.5984 2.23177 10.5984 3.31166H11.7984C11.7984 1.55932 10.367 0.147559 8.61215 0.147559V1.34756Z" fill="#908B8B"/>
</svg>
