<svg width="20" height="21" viewBox="0 0 20 21" fill="none" xmlns="http://www.w3.org/2000/svg">
<path d="M18 13.8813V14.4813C18.3314 14.4813 18.6 14.2126 18.6 13.8813H18ZM18 9.48125H18.6C18.6 9.14988 18.3314 8.88125 18 8.88125V9.48125ZM6.07554 5.37654C5.7968 5.55574 5.7161 5.92696 5.89529 6.20571C6.07448 6.48445 6.44571 6.56515 6.72445 6.38596L6.07554 5.37654ZM12 2.28125L12.4736 1.91289C12.283 1.66776 11.9368 1.60862 11.6755 1.77654L12 2.28125ZM14.3264 6.24962C14.5298 6.51118 14.9068 6.5583 15.1684 6.35486C15.4299 6.15142 15.4771 5.77446 15.2736 5.51289L14.3264 6.24962ZM18 13.2813H15.4V14.4813H18V13.2813ZM15.4 10.0813H18V8.88125H15.4V10.0813ZM17.4 9.48125V13.8813H18.6V9.48125H17.4ZM13.8 11.6813C13.8 10.7976 14.5163 10.0813 15.4 10.0813V8.88125C13.8536 8.88125 12.6 10.1349 12.6 11.6813H13.8ZM15.4 13.2813C14.5163 13.2813 13.8 12.5649 13.8 11.6813H12.6C12.6 13.2277 13.8536 14.4813 15.4 14.4813V13.2813ZM6.72445 6.38596L12.3245 2.78596L11.6755 1.77654L6.07554 5.37654L6.72445 6.38596ZM11.5264 2.64961L14.3264 6.24962L15.2736 5.51289L12.4736 1.91289L11.5264 2.64961ZM2.8 6.48125H16.4V5.28125H2.8V6.48125ZM16.4 17.2813H2.8V18.4813H16.4V17.2813ZM2.6 17.0813V6.68125H1.4V17.0813H2.6ZM2.8 17.2813C2.68954 17.2813 2.6 17.1917 2.6 17.0813H1.4C1.4 17.8545 2.0268 18.4813 2.8 18.4813V17.2813ZM16.6 17.0813C16.6 17.1917 16.5105 17.2813 16.4 17.2813V18.4813C17.1732 18.4813 17.8 17.8545 17.8 17.0813H16.6ZM16.4 6.48125C16.5105 6.48125 16.6 6.57079 16.6 6.68125H17.8C17.8 5.90805 17.1732 5.28125 16.4 5.28125V6.48125ZM2.8 5.28125C2.0268 5.28125 1.4 5.90805 1.4 6.68125H2.6C2.6 6.57079 2.68954 6.48125 2.8 6.48125V5.28125ZM16.6 14.4813V17.0813H17.8V14.4813H16.6ZM16.6 6.68125V8.78125H17.8V6.68125H16.6Z" fill="#E4932B"/>
</svg>
