<svg width="18" height="12" viewBox="0 0 18 12" fill="none" xmlns="http://www.w3.org/2000/svg">
<path d="M1 11.2617C1.91554 9.73465 3.92209 8.68949 7.0526 8.68949C10.1831 8.68949 12.1897 9.73465 13.1052 11.2617M13.6844 7.53152C15.3422 8.36043 16.1711 9.18934 17 10.8472M11.9602 1.19572C12.7402 1.61535 13.2705 2.43932 13.2705 3.38714C13.2705 4.30758 12.7704 5.11122 12.0272 5.54119M9.53932 3.38711C9.53932 4.76049 8.42598 5.87384 7.0526 5.87384C5.67922 5.87384 4.56587 4.76049 4.56587 3.38711C4.56587 2.01373 5.67922 0.900391 7.0526 0.900391C8.42598 0.900391 9.53932 2.01373 9.53932 3.38711Z" stroke="#908B8B" stroke-width="1.2" stroke-linecap="round"/>
</svg>
